# xmcd
# 
# Track frame offsets:
#     150
#     18860
#     36712
#     54478
#     76492
#     97681
#     119574
#     142434
#     163856
#     182300
#     211358
# 
# Disc length: 4440
# 
# Revision: 6
# Processed by: cddbd v1.5.2PL0 Copyright (c) Steve Scherf et al.
# Submitted via: BonkEnc v1.0.6
# 
DISCID=9811560b
DTITLE=Richard Ashcroft - Keys To The World
DYEAR=2006
DGENRE=Britpop
TTITLE0=Why Not Nothing?
TTITLE1=Music Is Power
TTITLE2=Break The Night With Colour
TTITLE3=Words Just Get In The Way
TTITLE4=Keys To The World
TTITLE5=Sweet Brother Malcolm
TTITLE6=Cry Til The Morning
TTITLE7=Why Do Lovers?
TTITLE8=Simple Song
TTITLE9=World Keeps Turning
TTITLE10=Data Track
EXTD=YEAR: 2006
EXTT0=
EXTT1=
EXTT2=
EXTT3=
EXTT4=
EXTT5=
EXTT6=
EXTT7=
EXTT8=
EXTT9=
EXTT10=
PLAYORDER=
